<svg xmlns="http://www.w3.org/2000/svg" viewBox="0 0 1139 460" role="img" aria-label="Sankirtan — Bhajan Se Bhagwan Tak">
  <title>Sankirtan</title>
  <g transform="translate(40.00 250.00) scale(0.200000 -0.200000)"><path d="M32 183H201Q204 154 228.0 136.0Q252 118 287 118Q319 118 336.5 130.5Q354 143 354 163Q354 187 329.0 198.5Q304 210 248 224Q188 238 148.0 253.5Q108 269 79.0 302.5Q50 336 50 393Q50 441 76.5 480.5Q103 520 154.5 543.0Q206 566 277 566Q382 566 442.5 514.0Q503 462 512 376H354Q350 405 328.5 422.0Q307 439 272 439Q242 439 226.0 427.5Q210 416 210 396Q210 372 235.5 360.0Q261 348 315 336Q377 320 416.0 304.5Q455 289 484.5 254.5Q514 220 515 162Q515 113 487.5 74.5Q460 36 408.5 14.0Q357 -8 289 -8Q216 -8 159.0 17.0Q102 42 69.0 85.5Q36 129 32 183Z" fill="#E65100"/></g>
  <g transform="translate(151.60 250.00) scale(0.200000 -0.200000)"><path d="M274 566Q333 566 377.5 542.0Q422 518 446 479V558H617V0H446V79Q421 40 376.5 16.0Q332 -8 273 -8Q205 -8 149.0 27.5Q93 63 60.5 128.5Q28 194 28 280Q28 366 60.5 431.0Q93 496 149.0 531.0Q205 566 274 566ZM324 417Q273 417 237.5 380.5Q202 344 202 280Q202 216 237.5 178.5Q273 141 324 141Q375 141 410.5 178.0Q446 215 446 279Q446 343 410.5 380.0Q375 417 324 417Z" fill="#E65100"/></g>
  <g transform="translate(287.40 250.00) scale(0.200000 -0.200000)"><path d="M617 326V0H447V303Q447 359 418.0 390.0Q389 421 340 421Q291 421 262.0 390.0Q233 359 233 303V0H62V558H233V484Q259 521 303.0 542.5Q347 564 402 564Q500 564 558.5 500.5Q617 437 617 326Z" fill="#E65100"/></g>
  <g transform="translate(422.20 250.00) scale(0.200000 -0.200000)"><path d="M403 0 233 234V0H62V740H233V331L402 558H613L381 278L615 0Z" fill="#0B5A70"/></g>
  <g transform="translate(545.80 250.00) scale(0.200000 -0.200000)"><path d="M46 708Q46 748 74.5 774.5Q103 801 148 801Q192 801 220.5 774.5Q249 748 249 708Q249 669 220.5 642.5Q192 616 148 616Q103 616 74.5 642.5Q46 669 46 708ZM233 558V0H62V558Z" fill="#0B5A70"/></g>
  <g transform="translate(604.80 250.00) scale(0.200000 -0.200000)"><path d="M408 564V383H361Q297 383 265.0 355.5Q233 328 233 259V0H62V558H233V465Q263 511 308.0 537.5Q353 564 408 564Z" fill="#0B5A70"/></g>
  <g transform="translate(690.40 250.00) scale(0.200000 -0.200000)"><path d="M373 145V0H286Q193 0 141.0 45.5Q89 91 89 194V416H21V558H89V694H260V558H372V416H260V192Q260 167 272.0 156.0Q284 145 312 145Z" fill="#0B5A70"/></g>
  <g transform="translate(771.60 250.00) scale(0.200000 -0.200000)"><path d="M274 566Q333 566 377.5 542.0Q422 518 446 479V558H617V0H446V79Q421 40 376.5 16.0Q332 -8 273 -8Q205 -8 149.0 27.5Q93 63 60.5 128.5Q28 194 28 280Q28 366 60.5 431.0Q93 496 149.0 531.0Q205 566 274 566ZM324 417Q273 417 237.5 380.5Q202 344 202 280Q202 216 237.5 178.5Q273 141 324 141Q375 141 410.5 178.0Q446 215 446 279Q446 343 410.5 380.0Q375 417 324 417Z" fill="#0B5A70"/></g>
  <g transform="translate(907.40 250.00) scale(0.200000 -0.200000)"><path d="M617 326V0H447V303Q447 359 418.0 390.0Q389 421 340 421Q291 421 262.0 390.0Q233 359 233 303V0H62V558H233V484Q259 521 303.0 542.5Q347 564 402 564Q500 564 558.5 500.5Q617 437 617 326Z" fill="#0B5A70"/></g>
  <g transform="translate(1042.20 250.00) scale(0.200000 -0.200000)"><path d="M40 84Q40 124 68.5 151.0Q97 178 142 178Q186 178 214.5 151.0Q243 124 243 84Q243 45 214.5 18.5Q186 -8 142 -8Q97 -8 68.5 18.5Q40 45 40 84Z" fill="#E65100"/></g>
  <g transform="translate(404.83 402.63) scale(0.042000 -0.042000)"><path d="M186 632Q231 632 264.0 621.0Q297 610 322 585Q342 565 355.0 531.5Q368 498 368 435V327H549V527H438V622H761V527H663V0H549V232H368V208Q368 168 351.0 151.5Q334 135 306 135Q286 135 262.5 148.0Q239 161 218.5 182.0Q198 203 184.5 227.0Q171 251 171 273Q171 295 185.0 311.0Q199 327 238 327H255V430Q255 470 250.0 491.0Q245 512 236 526Q219 551 182 551Q159 551 147.0 540.0Q135 529 135 512Q135 489 155.0 476.0Q175 463 222 461L214 377Q138 383 91.0 415.0Q44 447 44 514Q44 555 63.5 581.0Q83 607 115.5 619.5Q148 632 186 632Z" fill="#0B5A70" fill-opacity="0.75"/></g>
  <g transform="translate(436.20 402.63) scale(0.042000 -0.042000)"><path d="M705 527V0H591V346H485Q445 346 426 348Q456 319 473.0 284.5Q490 250 490 212Q490 164 468.5 132.0Q447 100 410.0 84.0Q373 68 328 68Q270 68 217.0 96.5Q164 125 115.5 195.0Q67 265 24 390L122 426Q166 298 214.0 231.5Q262 165 319 165Q345 165 361.5 179.5Q378 194 378 224Q378 263 350.5 297.5Q323 332 278 359L316 441H591V527H0V622H803V527Z" fill="#0B5A70" fill-opacity="0.75"/></g>
  <g transform="translate(469.30 402.63) scale(0.042000 -0.042000)"><path d="M0 622H608V527H511V0H397V277H230V241Q230 206 214.0 189.5Q198 173 170 173Q148 173 124.5 186.0Q101 199 80.0 220.0Q59 241 46.0 265.5Q33 290 33 312Q33 337 46.5 355.0Q60 373 100 373H397V527H0Z" fill="#0B5A70" fill-opacity="0.75"/></g>
  <g transform="translate(494.25 402.63) scale(0.042000 -0.042000)"><path d="" fill="#0B5A70" fill-opacity="0.75"/></g>
  <g transform="translate(505.17 402.63) scale(0.042000 -0.042000)"><path d="M635 527V0H521V246Q493 239 464.5 236.5Q436 234 402 234Q349 234 302.5 243.0Q256 252 225 265Q211 257 195 250Q234 203 285.0 154.0Q336 105 392 59L319 -15Q236 59 170.0 128.5Q104 198 69 245Q47 275 40.5 295.0Q34 315 34 332Q34 355 50.5 377.0Q67 399 108 399Q154 399 187 363Q201 383 206.5 408.0Q212 433 212 458Q212 477 209.0 495.0Q206 513 202 527H0V622H733V527ZM391 329Q428 329 458.5 332.5Q489 336 521 345V527H314Q319 511 322.5 491.0Q326 471 326 445Q326 411 319.0 384.5Q312 358 299 337Q320 333 343.0 331.0Q366 329 391 329Z" fill="#0B5A70" fill-opacity="0.75"/></g>
  <g transform="translate(535.32 402.63) scale(0.042000 -0.042000)"><path d="M-193 615Q-211 682 -229.0 722.0Q-247 762 -270.0 780.5Q-293 799 -327 799Q-347 799 -364.5 795.0Q-382 791 -396 785L-427 878Q-404 887 -380.0 891.5Q-356 896 -327 896Q-287 896 -253.5 884.5Q-220 873 -192.0 842.5Q-164 812 -139.0 757.0Q-114 702 -90 615Z" fill="#0B5A70" fill-opacity="0.75"/></g>
  <g transform="translate(535.32 402.63) scale(0.042000 -0.042000)"><path d="" fill="#0B5A70" fill-opacity="0.75"/></g>
  <g transform="translate(546.24 402.63) scale(0.042000 -0.042000)"><path d="M186 632Q231 632 264.0 621.0Q297 610 322 585Q342 565 355.0 531.5Q368 498 368 435V327H549V527H438V622H761V527H663V0H549V232H368V208Q368 168 351.0 151.5Q334 135 306 135Q286 135 262.5 148.0Q239 161 218.5 182.0Q198 203 184.5 227.0Q171 251 171 273Q171 295 185.0 311.0Q199 327 238 327H255V430Q255 470 250.0 491.0Q245 512 236 526Q219 551 182 551Q159 551 147.0 540.0Q135 529 135 512Q135 489 155.0 476.0Q175 463 222 461L214 377Q138 383 91.0 415.0Q44 447 44 514Q44 555 63.5 581.0Q83 607 115.5 619.5Q148 632 186 632Z" fill="#0B5A70" fill-opacity="0.75"/></g>
  <g transform="translate(577.62 402.63) scale(0.042000 -0.042000)"><path d="M232 527V229Q232 161 172 161Q150 161 126.5 174.0Q103 187 82.0 208.0Q61 229 48.0 253.5Q35 278 35 301Q35 325 48.5 343.0Q62 361 102 361H118V527H0V622H607V527H509V0H395V527Z" fill="#0B5A70" fill-opacity="0.75"/></g>
  <g transform="translate(602.48 402.63) scale(0.042000 -0.042000)"><path d="M602 527H503V0H389V140Q358 121 322.5 110.0Q287 99 239 99Q182 99 137.0 119.5Q92 140 66.0 179.5Q40 219 40 275Q40 360 98.5 408.0Q157 456 253 456Q280 456 311.0 453.5Q342 451 358 447L350 350Q333 354 311.5 356.5Q290 359 269 359Q213 359 183.5 337.0Q154 315 154 276Q154 232 181.5 213.5Q209 195 247 195Q294 195 328.5 214.0Q363 233 389 261V527H0V622H602Z" fill="#0B5A70" fill-opacity="0.75"/></g>
  <g transform="translate(627.13 402.63) scale(0.042000 -0.042000)"><path d="M197 527V0H83V527H0V622H295V527Z" fill="#0B5A70" fill-opacity="0.75"/></g>
  <g transform="translate(638.94 402.63) scale(0.042000 -0.042000)"><path d="M0 622H608V527H511V0H397V277H230V241Q230 206 214.0 189.5Q198 173 170 173Q148 173 124.5 186.0Q101 199 80.0 220.0Q59 241 46.0 265.5Q33 290 33 312Q33 337 46.5 355.0Q60 373 100 373H397V527H0Z" fill="#0B5A70" fill-opacity="0.75"/></g>
  <g transform="translate(663.88 402.63) scale(0.042000 -0.042000)"><path d="" fill="#0B5A70" fill-opacity="0.75"/></g>
  <g transform="translate(674.80 402.63) scale(0.042000 -0.042000)"><path d="M520 527V0H406V310H308Q251 310 223.0 304.5Q195 299 177 284Q155 266 155 229Q155 189 188.0 149.0Q221 109 285 60L211 -15Q164 24 125.5 65.0Q87 106 64.0 150.5Q41 195 41 244Q41 280 54.5 308.5Q68 337 89 356Q119 382 161.0 393.5Q203 405 277 405H406V527H0V622H618V527Z" fill="#0B5A70" fill-opacity="0.75"/></g>
  <g transform="translate(700.17 402.63) scale(0.042000 -0.042000)"><path d="M814 527H491V364Q540 400 604 400Q673 400 716.5 357.0Q760 314 760 237Q760 191 744.0 138.0Q728 85 692 32L592 87Q615 119 631.0 155.0Q647 191 647 229Q647 269 629.5 287.5Q612 306 584 306Q559 306 535.5 290.5Q512 275 491 252V0H377V144Q347 124 313.0 111.5Q279 99 233 99Q181 99 137.0 119.0Q93 139 66.5 178.5Q40 218 40 277Q40 332 66.5 372.0Q93 412 139.5 434.0Q186 456 248 456Q274 456 302.5 453.0Q331 450 346 447L338 350Q323 354 302.0 356.5Q281 359 262 359Q211 359 182.5 337.5Q154 316 154 278Q154 233 181.0 214.0Q208 195 242 195Q285 195 318.0 215.0Q351 235 377 262V527H0V622H814Z" fill="#0B5A70" fill-opacity="0.75"/></g>
</svg>